<svg width="250" height="80" xmlns="http://www.w3.org/2000/svg">
 <!-- Created with Method Draw - http://github.com/duopixel/Method-Draw/ -->

 <g>
  <title>background</title>
  <rect fill="none" id="canvas_background" height="82" width="252" y="-1" x="-1"/>
  <g display="none" id="canvasGrid">
   <rect fill="url(#gridpattern)" stroke-width="0" y="0" x="0" height="100%" width="100%" id="svg_1"/>
  </g>
 </g>
 <g>
  <title>Layer 1</title>
  <!-- Created with Method Draw - http://github.com/duopixel/Method-Draw/ -->
  <g stroke="null" id="svg_5">
   <path stroke="null" fill="#ffffff" stroke-width="1.5" stroke-opacity="null" fill-opacity="null" d="m28.396083,34.194583c0,0 0.395679,-0.870494 0.395679,-0.870494c0,0 0.395679,-0.633087 0.395679,-0.633087c0,0 0.712223,-0.395679 0.712223,-0.395679c0,0 1.187037,0.079136 1.187037,0.079136c0,0 0.553951,0.633087 0.553951,0.633087c0,0 0.55395,1.345309 0.55395,1.345309c0,0 -0.158271,10.762472 -0.158271,10.762472c0,0 0.158271,7.834446 0.158271,7.834446c0,0 0,5.143828 -0.063309,5.143828c0.063309,0 0.063309,3.323706 0,3.323706c0.063309,0 -0.253235,3.165432 -0.253235,3.165432c0,0 0.553951,0.633087 0.490642,0.633087c0.063309,0 1.329482,0.633087 1.329482,0.633087c0,0 1.50358,0.316544 1.50358,0.316544c0,0 3.244569,0.158271 3.244569,0.158271c0,0 5.222965,0 5.222965,0c0,0 2.769753,0 2.769753,0c0,0 0.633087,0.079136 0.633087,0.079136c0,0 0,0.633087 0,0.633087c0,0 -3.165432,0.712222 -3.165432,0.712222c0,0 -3.79852,0.633087 -3.861829,0.633087c0.063309,0 -4.051754,0.316544 -4.051754,0.316544c0,0 -2.057532,0.079135 -2.057532,0.079135c0,0 -2.136667,-0.633087 -2.136667,-0.633087c0,0 -1.503581,-0.395679 -1.56689,-0.395679c0.063309,0 -1.519407,-0.949629 -1.582716,-0.949629c0.063309,0 -0.174099,-0.94963 -0.174099,-0.94963c0,0 -0.158272,-1.978395 -0.22158,-1.978395c0.063308,0 -0.174099,-5.302101 -0.174099,-5.302101c0,0 0,-5.618644 -0.063309,-5.618644c0.063309,0 0.063309,-6.726545 0,-6.726545c0.063309,0 0.22158,-5.064692 0.22158,-5.064692c0,0 0.158271,-3.086297 0.158271,-3.086297c0,0 0,-3.877656 0,-3.877656z" id="svg_18"/>
   <path stroke="null" fill="#ffffff" stroke-width="1.5" stroke-opacity="null" fill-opacity="null" id="svg_17" d="m52.44622,53.473074c0,0 0.178356,0.199989 0,0.378339c-0.089173,0.08918 -0.036941,0.163051 -0.126114,0.252222c-0.178353,0.17835 -0.252225,0.126114 -0.378339,0.126114c-0.126101,0 -0.163042,0.163048 -0.252215,0.252225c-0.089173,0.08918 -0.163055,0.163051 -0.252225,0.252222c-0.089173,0.08918 -0.126114,0.126114 -0.252228,0.126114c-0.126114,0 -0.378339,0 -0.504453,0c-0.126111,0 -0.252215,0 -0.50444,0c-0.126114,0 -0.289169,0.089177 -0.378339,0c-0.089173,-0.089177 0.08917,-0.41527 0,-0.504447c-0.178356,-0.17835 -0.252228,-0.126114 -0.252228,-0.252228c0,-0.252222 -0.036941,-0.289156 -0.126114,-0.378333c-0.08917,-0.08918 -0.036937,-0.163048 -0.126111,-0.252228c-0.178347,-0.178344 -0.036941,-0.289156 -0.126114,-0.378333c-0.089173,-0.08918 0,-0.252228 0,-0.504453c0,-0.126108 -0.252215,-0.252222 -0.252215,-0.378336c0,-0.252225 -0.126114,-0.252225 -0.126114,-0.378333c0,-0.126114 -0.126114,-0.126114 -0.126114,-0.252228c0,-0.252225 0,-0.378339 0,-0.504447c0,-0.126114 0,-0.378339 0,-0.504453c0,-0.126108 0,-0.252222 0,-0.504447c0,-0.126114 -0.036941,-0.163048 -0.126111,-0.252228c-0.089173,-0.08917 0,-0.378333 0,-0.504447c0,-0.126114 0,-0.252222 0,-0.504447c0,-0.126114 0,-0.252228 0,-0.378339c0,-0.252222 -0.252228,-0.252222 -0.252228,-0.378336c0,-0.126114 0,-0.252225 0,-0.504447c0,-0.126114 0,-0.252228 0,-0.378339c0,-0.252222 0,-0.378336 0,-0.50445c0,-0.126111 0,-0.378333 0,-0.504447c0,-0.252225 0,-0.504453 0,-0.756675c0,-0.378339 0,-0.504447 0,-0.630561c0,-0.126111 0,-0.378339 0,-0.50445c0,-0.126111 0,-0.252222 0,-0.50445c0,-0.126111 0,-0.252222 0,-0.378333c0,-0.252228 0.036941,-0.289162 0.126114,-0.378339c0.089173,-0.08918 0.036941,-0.163045 0.126114,-0.252222c0.178353,-0.17835 0.057864,-0.339679 0.126111,-0.504453c0.048263,-0.11651 0.103972,-0.264567 0.252228,-0.504447c0.066297,-0.107277 0.029597,-0.271426 0.126111,-0.50445c0.06825,-0.164767 0.097134,-0.255596 0.126105,-0.378339c0.06479,-0.274449 0.126114,-0.378333 0.126114,-0.504447c0,-0.126114 -0.066297,-0.397173 0,-0.504447c0.148253,-0.239883 0.252225,-0.252228 0.252225,-0.504453c0,-0.126108 -0.02897,-0.255593 0,-0.378336c0.06479,-0.274453 0.036941,-0.41527 0.126114,-0.504447c0.089173,-0.089177 0.126114,-0.126114 0.126114,-0.378339c0,-0.126114 0.077851,-0.261822 0.126111,-0.378336c0.136509,-0.32955 0.252228,-0.378339 0.252228,-0.504447c0,-0.126114 0.126111,-0.126114 0.126111,-0.378339c0,-0.126114 0.061324,-0.356108 0.126114,-0.630561c0.02897,-0.122743 0.057855,-0.213565 0.126105,-0.378336c0.096524,-0.233027 0.203962,-0.38794 0.252225,-0.504453c0.06825,-0.16477 0.036941,-0.41527 0.126114,-0.504447c0.089173,-0.089177 0.036941,-0.163048 0.126111,-0.252225c0.089173,-0.08918 0.230086,-0.138456 0.378342,-0.378336c0.066297,-0.107277 0.029587,-0.271426 0.126111,-0.504447c0.06825,-0.164773 0.097144,-0.255599 0.126114,-0.378339c0.06479,-0.274449 0.036941,-0.41527 0.126114,-0.50445c0.178344,-0.178344 0.155692,-0.145312 0.252215,-0.378339c0.06825,-0.16477 0.183978,-0.213559 0.252225,-0.378333c0.096527,-0.233027 0.036941,-0.289159 0.126114,-0.378336c0.089173,-0.089177 0.115719,-0.1749 0.252228,-0.504453c0.04826,-0.11651 0.036937,-0.289156 0.126111,-0.378333c0.089173,-0.08918 0.183978,-0.213569 0.252228,-0.378339c0.04826,-0.116513 0.073859,-0.3261 0.252215,-0.50445c0.089173,-0.089177 0.163055,-0.036934 0.252225,-0.126111c0.089173,-0.08918 0.036941,-0.163048 0.126114,-0.252222c0.178356,-0.17835 0.252225,-0.252228 0.378339,-0.378339c0.126114,-0.126114 0.163055,-0.163048 0.252228,-0.252228c0.178344,-0.178344 0.310079,-0.339679 0.378329,-0.504447c0.04826,-0.116516 0.029587,-0.145312 0.126111,-0.378336c0.06825,-0.16477 0.378339,-0.252225 0.378339,-0.378339c0,-0.252222 0.126114,-0.252222 0.126114,-0.378333c0,-0.126114 0.036941,-0.163048 0.126114,-0.252228c0.178344,-0.178344 0.230086,-0.264567 0.378339,-0.504447c0.066297,-0.107277 0.029587,-0.145312 0.126114,-0.378339c0.068247,-0.164767 0.163042,-0.163045 0.252215,-0.252222c0.089173,-0.089177 0.289165,-0.415276 0.378339,-0.504447c0.089173,-0.08918 0.163055,-0.036937 0.252225,-0.126114c0.089173,-0.089177 0.163055,-0.415276 0.252228,-0.504453c0.089173,-0.089177 0.163051,-0.036931 0.252225,-0.126108c0.089173,-0.089177 0.003371,-0.349369 0.126105,-0.378339c0.274453,-0.06479 0.339679,-0.310083 0.504453,-0.378336c0.11651,-0.04826 0.378339,0 0.50445,0c0.126114,0 0.252228,0 0.504443,0c0.126114,0 0.252225,0 0.378339,0c0.252228,0 0.378339,0 0.504453,0c0.126114,0 0.289156,0.036937 0.378329,0.126114c0.089173,0.089177 0.073881,0.073875 0.252225,0.252222c0.089173,0.089177 0.199986,-0.052239 0.378339,0.126114c0.089173,0.089177 -0.178344,0.3261 0,0.504447c0.089173,0.089177 0.163055,0.036934 0.252228,0.126114c0.089173,0.089177 0.126114,0.126111 0.126114,0.252225c0,0.252222 0.163051,0.289156 0.252225,0.378336c0.089173,0.089167 0.036931,0.163048 0.126105,0.252225c0.08917,0.089177 0.036937,0.289156 0.126111,0.378336c0.089173,0.089177 0.230086,0.012345 0.378339,0.252225c0.132606,0.214556 0.036941,0.289156 0.126114,0.378336c0.089173,0.089177 -0.178356,0.3261 0,0.50445c0.089173,0.08918 0.126114,0.126111 0.126114,0.252222c0,0.126114 0.126111,0.378339 0.126111,0.504453c0,0.126108 0.073872,0.073872 0.252228,0.252222c0.178353,0.17835 0.057864,0.339673 0.126114,0.504447c0.04826,0.116513 0.126101,0.378339 0.126101,0.504453c0,0.126114 0.126114,0.252222 0.126114,0.504447c0,0.126114 0.252225,0.126114 0.252225,0.252228c0,0.126111 0.036941,0.289156 0.126114,0.378333c0.089173,0.08918 -0.089173,0.289162 0,0.378339c0.089173,0.08918 0.126114,0.252222 0.126114,0.378336c0,0.126114 0.077851,0.135715 0.126111,0.252225c0.136509,0.329547 0.310092,0.339676 0.378339,0.50445c0.048263,0.11651 0.036941,0.289156 0.126114,0.378333c0.089173,0.08918 0.036931,0.163058 0.126105,0.252228c0.089173,0.089177 0.073872,0.199989 0.252225,0.378339c0.089173,0.089173 0.057864,0.213562 0.126114,0.378333c0.096524,0.233027 0.057864,0.339676 0.126114,0.50445c0.04826,0.11651 0.036937,0.289162 0.126111,0.378339c0.089173,0.089177 0.073872,0.073872 0.252228,0.252222c0.08917,0.089177 0.057864,0.339679 0.126111,0.504453c0.048263,0.11651 0.036941,0.163042 0.126114,0.252219c0.178356,0.178353 0.036941,0.289162 0.126114,0.378342c0.089173,0.089177 -0.132606,0.28989 0,0.504447c0.148244,0.239877 0.163042,0.289162 0.252215,0.378333c0.089173,0.08918 0.077851,0.261829 0.126114,0.378342c0.068247,0.16477 0.029587,0.271423 0.126111,0.504447c0.06825,0.164773 0.126114,0.252225 0.126114,0.378339c0,0.252222 0.252228,0.378336 0.252228,0.504447c0,0.126114 0.126111,0.378336 0.126111,0.50445c0,0.126111 0.126114,0.252225 0.126114,0.504447c0,0.126114 -0.020199,0.253852 0,0.378339c0.063882,0.39365 0.077851,0.51405 0.126114,0.630561c0.136506,0.32955 0.252225,0.378336 0.252225,0.504447c0,0.126114 0.126105,0.126114 0.126105,0.378339c0,0.126114 0.126111,0.126114 0.126111,0.252222c0,0.126114 0.126114,0.378339 0.126114,0.504453c0,0.126114 -0.178356,0.326097 0,0.504447c0.178356,0.17835 0.252225,0.126114 0.252225,0.252228c0,0.126108 0.057864,0.339673 0.126114,0.504447c0.048263,0.11651 -0.096524,0.271426 0,0.504447c0.06825,0.164773 0.126114,0.252228 0.126114,0.378339c0,0.252222 0,0.378336 0,0.50445c0,0.126111 0,0.378333 0,0.504447c0,0.126114 0,0.252225 0,0.504447c0,0.126114 0,0.252228 0,0.378339c0,0.252228 0,0.378336 0,0.50445c0,0.126111 0,0.378339 0,0.504447c0,0.126114 0.061321,0.229997 0.126114,0.504453c0.02897,0.12274 0,0.252222 0,0.378333c0,0.252228 0,0.378342 0,0.50445c0,0.378339 0,0.504453 0,0.630564c0,0.378336 0,0.50445 0,0.630561c0,0.378336 0,0.630561 0,0.756675c0,0.378336 0,0.504447 0,0.630561c0,0.252222 0,0.378336 0,0.504447c0,0.126114 0,0.378336 0,0.50445c0,0.126111 0,0.252225 0,0.504447c0,0.126114 0,0.252225 0,0.630564c0,0.126111 -0.126114,0.126111 -0.126114,0.252222c0,0.126114 0.066306,0.397176 0,0.504453c-0.148253,0.23988 -0.155701,0.27142 -0.252228,0.504447c-0.068247,0.164773 -0.126111,0.252222 -0.126111,0.378336c0,0.252225 -0.126114,0.252225 -0.126114,0.378339c0,0.252222 0.072789,0.308725 -0.126114,0.630561c-0.148244,0.239877 -0.289156,0.163045 -0.378329,0.252222c-0.178353,0.17835 -0.036941,0.289162 -0.126111,0.378339c-0.089173,0.089177 -0.061324,0.229997 -0.126114,0.504447c-0.02897,0.122743 -0.163055,0.289162 -0.252225,0.378339c-0.089173,0.08918 -0.498803,0.573703 -0.630567,1.008896c-0.036545,0.120704 -0.029578,0.271426 -0.126105,0.504447c-0.068247,0.164773 -0.126111,0.252231 -0.50445,0.630567c-0.126114,0.126108 -0.147946,0.23365 -0.252228,0.378333c-0.164887,0.228769 -0.036941,0.41527 -0.126111,0.50445c-0.178356,0.17835 -0.213451,0.149573 -0.378342,0.378339c-0.104279,0.144682 -0.126111,0.252222 -0.252215,0.378333c-0.252215,0.252231 -0.330076,0.261829 -0.378339,0.378339c-0.06825,0.164773 -0.163055,0.163045 -0.252225,0.252222c-0.178356,0.17835 -0.289169,0.289162 -0.378339,0.378339c-0.089173,0.08918 -0.30505,0.052828 -0.504443,0.252222c-0.199406,0.199406 -0.178489,0.276029 -0.252228,0.378339c-0.233185,0.323529 -0.326097,0.3261 -0.50445,0.50445c-0.089173,0.089177 -0.3261,-0.052233 -0.504443,0.126111c-0.089173,0.08918 -0.097144,0.129485 -0.126114,0.252228c-0.06479,0.274453 -0.326097,0.199983 -0.504453,0.378339c-0.08917,0.089173 -0.036937,0.163045 -0.126111,0.252215c-0.089173,0.089173 -0.129485,0.223255 -0.252228,0.252228c-0.274453,0.06479 -0.41527,0.036941 -0.50444,0.126111c-0.178356,0.178356 0,0.504453 0,0.756681c0,0.126101 0,0.378329 0,0.50444c0,0.126114 0,0.252228 0,0.504453c0,0.126114 0,0.252225 0,0.378339c0,0.252215 0,0.378329 0,0.504443c0,0.126114 0,0.378339 0,0.504453c0,0.126111 0,0.252225 0,0.50444c0,0.126114 0,0.252228 0,0.378339c0,0.252228 0,0.378342 0,0.504453c0,0.126114 0,0.378339 0,0.504443c0,0.126114 0,0.252225 0,0.504453c0,0.126111 0,0.252225 0,0.378339c0,0.252225 -0.089173,0.41527 0,0.504443c0.178344,0.178344 0.252215,0.126111 0.252215,0.378339c0,0.126111 0,0.252225 0,0.378339c0,0.252225 0,0.378339 0,0.504453c0,0.126101 0.126114,0.126101 0.126114,0.50444c0,0.126114 0,0.252228 0,0.504453c0,0.252225 0,0.378339 0,0.630554c0,0.126114 0,0.252228 0,0.378342c0,0.252225 0,0.378339 0,0.630564c0,0.378329 0.020199,0.506077 0,0.630554c-0.063885,0.393653 -0.126114,0.504453 -0.126114,0.630567c0,0.252225 0,0.378329 0,0.504443c0,0.126111 0.052252,0.199983 -0.126105,0.378339c-0.08917,0.089173 -0.163051,0.036941 -0.252225,0.126111c-0.178356,0.178356 -0.378339,0 -0.504453,0c-0.126114,0 -0.378339,0 -0.504453,0c-0.126101,0 -0.252215,0 -0.50444,0c-0.126114,0 -0.163055,-0.036937 -0.252228,-0.126111c-0.089173,-0.089173 -0.415279,-0.036941 -0.504453,-0.126114c-0.08917,-0.089173 -0.163042,-0.036941 -0.252215,-0.126114c-0.089173,-0.08917 -0.310089,-0.33967 -0.378339,-0.50444c-0.048263,-0.116513 -0.126114,-0.126114 -0.126114,-0.252228c0,-0.252225 0,-0.378339 0,-0.504453c0,-0.126111 0,-0.378339 0,-0.50444c0,-0.126114 0,-0.252228 0,-0.504453c0,-0.126114 0,-0.252225 0,-0.378339c0,-0.252228 0,-0.378339 0,-0.504443c0,-0.126114 0,-0.378339 0,-0.504453c0,-0.126111 0,-0.252225 0,-0.50445c0,-0.126114 0,-0.252228 0,-0.378329c0,-0.252228 0,-0.504453 0,-0.630567c0,-0.252225 0,-0.378339 0,-0.504453c0,-0.126111 0,-0.50444 0,-0.630554c0,-0.126114 0,-0.378339 0,-0.504453c0,-0.126114 0.057953,-0.258967 0,-0.504443c-0.06479,-0.274453 -0.126111,-0.378339 -0.126111,-0.630564c0,-0.126114 0,-0.252228 0,-0.378339c0,-0.252228 0,-0.378329 0,-0.504443c0,-0.126114 0.066297,-0.397176 0,-0.504453c-0.148256,-0.23988 -0.252228,-0.630564 -0.252228,-0.882782c0,-0.252225 0,-0.378339 0,-0.50445c0,-0.126114 0,-0.378339 0,-0.504453c0,-0.252215 0,-0.630557 0,-0.756668c0,-0.126114 -0.061321,-0.356111 -0.126111,-0.630567c-0.028973,-0.12274 0,-0.378329 0,-0.630554c0,-0.126114 0,-0.378339 0,-0.504453c0,-0.126114 0,-0.252222 0,-0.504447c0,-0.126114 0,-0.252228 0,-0.378336c0,-0.252225 0,-0.378339 0,-0.630564c0,-0.252222 0,-0.378336 0,-0.50445c0,-0.126111 0,-0.378333 0,-0.504447c0,-0.252225 0.126111,-0.504447 0.126111,-0.630561c0,-0.126114 0,-0.252225 0,-0.504447c0,-0.126114 0.036941,-0.163048 0.126114,-0.252228c0.267527,-0.267527 0,-0.630561 0,-0.756671c0,-0.252228 0,-0.378336 0,-0.50445c0,-0.126111 0,-0.378339 0,-0.50445c0,-0.126111 0.126114,-0.252222 0.126114,-0.630561c0,-0.50445 0.126111,-0.756675 0.126111,-1.13501c0,-0.126111 0,-0.252225 0,-0.378333c0,-0.252228 0,-0.378339 0,-0.504453c0,-0.378336 0,-0.504447 0,-0.630561c0,-0.126114 0,-0.378336 0,-0.504447c0,-0.126114 0,-0.252228 0,-0.50445c0,-0.126111 0,-0.252225 0,-0.378339c0,-0.252225 0,-0.378333 0,-0.630561c0,-0.252225 -0.066297,-0.39717 0,-0.504447c0.148256,-0.23988 0.252228,-0.378339 0.252228,-0.630561c0,-0.126114 0.126111,-0.504453 0.126111,-0.756675c0,-0.252225 -0.04826,-0.38794 0,-0.504453c0.06825,-0.16477 0.126114,-0.378333 0.126114,-0.630561c0,-0.126108 0,-0.378333 0,-0.504447c0,-0.126114 0,-0.252225 0,-0.504447c0,-0.126114 0.062232,-0.236917 0.126105,-0.630561c0.020199,-0.124487 0.252225,-0.378339 0.252225,-0.630561c0,-0.126114 0,-0.252228 0,-0.378339c0,-0.252222 0.068161,-0.385081 0.126114,-0.630561c0.06479,-0.274456 0.126114,-0.378336 0.126114,-0.50445c0,-0.126111 -0.089173,-0.415273 0,-0.504447c0.08917,-0.089177 0.036937,-0.163048 0.126111,-0.252225c0.178356,-0.17835 0.252228,-0.252228 0.252228,-0.378339c0,-0.126111 0.126111,-0.126111 0.252225,-0.126111c0.126114,0 0.41527,-0.089177 0.504443,0c0.178344,0.178347 0.036941,0.289159 0.126111,0.378336c0.089173,0.089177 0,0.252225 0,0.504447c0,0.126114 0,0.252228 0,0.378339c0,0.252222 0,0.378336 0,0.50445c0,0.126111 0,0.378339 0,0.504447c0,0.126114 0,0.252225 0,0.504453c0,0.126108 0,0.252222 0,0.378333c0,0.252228 0,0.378342 0,0.630561c0,0.252228 0,0.378342 0,0.50445c0,0.126111 0,0.378339 0,0.504453c0,0.126111 0.061324,0.229991 0.126114,0.504447c0.02897,0.12274 0,0.252225 0,0.378333c0,0.252228 -0.036545,0.509863 0,0.630567c0.131764,0.435193 0.252228,0.504447 0.252228,0.630561c0,0.378336 0.062229,0.615243 0.126111,1.008893c0.020199,0.124487 0,0.50445 0,0.756675c0,0.126114 0.057864,0.465787 0.126114,0.630561c0.144787,0.349537 0,0.630561 0,1.008899c0,0.252222 0,0.378336 0,0.630561c0,0.126114 0,0.252228 0,0.378336c0,0.252225 0,0.378339 0,0.882785c0,0.252228 0,0.756675 0,1.261121c0,0.126114 0,0.378339 0,0.630561c0,0.126114 0,0.252228 0,0.378339c0,0.252222 0.057864,0.339676 0.126114,0.50445c0.04826,0.11651 0,0.378339 0,0.504447c0,0.126114 0,0.252225 0,0.504453c0,0.126108 -0.089173,0.289156 0,0.378333c0.178344,0.178347 0.252215,0.252228 0.252215,0.378339c0,0.126111 0.061324,0.229994 0.126114,0.50445c0.02897,0.12274 0,0.252222 0,0.378333c0,0.252228 0,0.378339 0,0.504453c0,0.126108 0.036941,0.089173 0.126111,0c0.089173,-0.089177 0.230086,-0.26457 0.378339,-0.504453c0.0663,-0.107277 0.077854,-0.387936 0.126114,-0.504447c0.06825,-0.164773 0.185928,-0.523284 0.252228,-0.630561c0.148253,-0.23988 0.281803,-0.271426 0.378329,-0.504447c0.068247,-0.164773 0.183975,-0.213569 0.252225,-0.378339c0.096524,-0.233023 0.252225,-0.252222 0.252225,-0.378336c0,-0.126114 0.126114,-0.126114 0.126114,-0.252225c0,-0.252228 0.036941,-0.289162 0.126114,-0.378336c0.089173,-0.089177 0.077851,-0.135715 0.126111,-0.252225c0.136509,-0.329553 0.310092,-0.339676 0.378342,-0.50445c0.04826,-0.11651 0.077841,-0.38794 0.126101,-0.504453c0.06825,-0.16477 0.241833,-0.174897 0.378339,-0.504447c0.048263,-0.11651 0.126114,-0.252222 0.126114,-0.378333c0,-0.252228 0.126114,-0.378342 0.126114,-0.504453c0,-0.126108 0.126111,-0.126108 0.126111,-0.378336c0,-0.126114 0.252228,-0.252225 0.252228,-0.378333c0,-0.252228 0.126111,-0.378342 0.126111,-0.630567c0,-0.252222 0,-0.378336 0,-0.504447c0,-0.126114 0.036941,-0.289159 0.126114,-0.378336c0.089173,-0.089177 0,-0.252225 0,-0.378339c0,-0.252222 0.057855,-0.339679 0.126105,-0.504447c0.04826,-0.116516 0.115719,-0.301017 0.252225,-0.630561c0.048263,-0.116513 0,-0.378339 0,-0.50445c0,-0.126111 0.126114,-0.126111 0.126114,-0.252225c0,-0.378339 0,-0.882785 0,-1.008899c0,-0.504447 0.057864,-0.718009 0.126114,-0.882782c0.144784,-0.349537 0,-0.630561 0,-0.882785c0,-0.126114 0,-0.252228 0,-0.378339c0,-0.252222 0,-0.378336 0,-0.50445c0,-0.126111 0,-0.378333 0,-0.504447c0,-0.126114 0,-0.252225 0,-0.504447c0,-0.126114 0,-0.252228 0,-0.378339c0,-0.252222 0.057864,-0.339676 0.126111,-0.50445c0.048263,-0.11651 0,-0.378339 0,-0.504447c0,-0.126114 0,-0.252225 0,-0.504453c0,-0.126108 0,-0.252222 0,-0.378333c0,-0.252228 0,-0.378339 0,-0.50445c0,-0.126111 0,-0.378339 0,-0.50445c0,-0.252222 -0.057864,-0.46579 -0.126111,-0.630561c-0.048263,-0.116513 -0.252228,-0.252222 -0.252228,-0.50445c0,-0.126111 -0.126114,-0.126111 -0.126114,-0.252225c0,-0.126108 -0.126111,-0.126108 -0.126111,-0.378336c0,-0.126111 -0.126105,-0.126111 -0.126105,-0.252225c0,-0.126114 -0.252225,-0.126114 -0.252225,-0.378336c0,-0.126111 -0.126114,-0.252225 -0.126114,-0.378339c0,-0.252222 0,-0.378333 0,-0.504447c0,-0.126114 -0.061324,-0.356108 -0.126114,-0.630561c-0.08692,-0.368222 -0.378339,-0.756675 -0.378339,-1.008899c0,-0.126108 -0.057864,-0.213562 -0.126111,-0.378336c-0.096527,-0.233027 -0.036941,-0.289162 -0.126114,-0.378339c-0.089173,-0.089173 0.178353,-0.326097 0,-0.504447c-0.089173,-0.08918 0.052233,-0.199989 -0.126114,-0.378336c-0.178344,-0.178344 -0.163042,-0.415273 -0.252215,-0.504453c-0.089173,-0.089177 -0.126114,-0.126108 -0.126114,-0.378333c0,-0.126114 -0.126114,-0.252228 -0.126114,-0.378336c0,-0.252225 0,-0.378339 0,-0.504453c0,-0.126111 -0.126111,-0.378333 -0.126111,-0.504447c0,-0.126114 -0.155701,-0.271426 -0.252228,-0.504447c-0.068247,-0.164773 -0.097141,-0.255599 -0.126111,-0.378339c-0.06479,-0.274449 -0.183978,-0.339676 -0.252228,-0.50445c-0.04826,-0.11651 -0.073872,-0.199989 -0.252215,-0.378333c-0.089173,-0.08918 -0.036941,-0.163048 -0.126114,-0.252228c-0.089173,-0.089177 0.052242,-0.199989 -0.126111,-0.378339c-0.089173,-0.089177 -0.059817,-0.144945 -0.126114,-0.252222c-0.148253,-0.23988 -0.378339,-0.378339 -0.378339,-0.504447c0,-0.126114 -0.036941,-0.163048 -0.126114,-0.252225c-0.089173,-0.08918 -0.230086,-0.138459 -0.378339,-0.378339c-0.066297,-0.107277 -0.029581,-0.271423 -0.126105,-0.50445c-0.068247,-0.164773 -0.183975,-0.213559 -0.252225,-0.378333c-0.096524,-0.233027 -0.203965,-0.387943 -0.252225,-0.504453c-0.06825,-0.164773 -0.163055,-0.289156 -0.252228,-0.378336c-0.089173,-0.089177 -0.036941,-0.163048 -0.126114,-0.252225c-0.08917,-0.089177 -0.203962,-0.387936 -0.252225,-0.504447c-0.06825,-0.164773 -0.187435,-0.230004 -0.252215,-0.50445c-0.02897,-0.12274 -0.036941,-0.163048 -0.126114,-0.252225c-0.089173,-0.089177 -0.252225,-0.378336 -0.252225,-0.504447c0,-0.126114 -0.126114,-0.126114 -0.126114,-0.252228c0,-0.252222 -0.126114,-0.252222 -0.252225,-0.252222c-0.252228,0 -0.378342,0 -0.378342,0.126108c0,0.126114 0,0.252228 0,0.504453c0,0.126108 0.089173,0.289159 0,0.378336c-0.08917,0.089177 -0.036937,0.289162 -0.126111,0.378339c-0.089173,0.089167 -0.036931,0.163045 -0.126105,0.252222c-0.178353,0.17835 -0.203965,0.261829 -0.252225,0.378339c-0.06825,0.164773 -0.02959,0.27142 -0.126114,0.504447c-0.06825,0.164773 -0.163055,0.163048 -0.252225,0.252228c-0.089173,0.08917 0.066297,0.39717 0,0.504447c-0.148256,0.23988 -0.155704,0.271426 -0.252228,0.504447c-0.068247,0.164773 -0.036941,0.289162 -0.126111,0.378339c-0.089173,0.08918 -0.036941,0.289159 -0.126114,0.378336c-0.089173,0.089177 -0.077851,0.135712 -0.126114,0.252225c-0.136497,0.329541 -0.289156,0.289159 -0.378329,0.378336c-0.089173,0.089177 -0.061321,0.229997 -0.126114,0.504447c-0.02897,0.122743 -0.126111,0.126114 -0.126111,0.252228c0,0.126111 -0.314457,0.110796 -0.378339,0.504447c-0.020202,0.124484 -0.126114,0.126114 -0.126114,0.252225c0,0.252228 -0.059817,0.271059 -0.126114,0.378336c-0.148244,0.239877 -0.289156,0.163048 -0.378329,0.252225c-0.178353,0.17835 -0.036941,0.289162 -0.126111,0.378339c-0.089173,0.089173 -0.061324,0.229994 -0.126114,0.50445c-0.02897,0.12274 0.04826,0.261822 0,0.378333c-0.136509,0.329553 -0.163055,0.415276 -0.252228,0.504453c-0.08917,0.089177 -0.029587,0.145309 -0.126111,0.378336c-0.06825,0.164773 -0.036941,0.289162 -0.126114,0.378333c-0.089173,0.08918 -0.126114,0.252228 -0.126114,0.378339c0,0.126114 0.132606,0.289897 0,0.50445c-0.148253,0.23988 -0.252225,0.252225 -0.252225,0.378339c0,0.252222 0,0.378333 0,0.504447c0,0.126114 -0.126105,0.378336 -0.126105,0.504447c0,0.126114 0,0.252228 0,0.50445c0,0.126111 0.089173,0.289162 0,0.378339c-0.08917,0.089177 -0.126111,0.378333 -0.126111,0.504447c0,0.126114 -0.053024,0.515272 -0.126114,0.756675c-0.131764,0.4352 -0.252225,0.504447 -0.252225,0.630561c0,0.252225 -0.126114,0.504453 -0.126114,0.630561c0,0.252225 0.04826,0.38794 0,0.504453c-0.06825,0.16477 -0.036941,0.41527 -0.126114,0.504447c-0.089173,0.089177 -0.126114,0.126114 -0.126114,0.252225c0,0.252222 0.089173,0.41527 0,0.50445c-0.178353,0.17835 -0.252225,0.126111 -0.252225,0.378333c0,0.126114 -0.036941,0.163048 -0.126114,0.252228c-0.08917,0.089177 0,0.378333 0,0.504447c0,0.126114 0,0.252225 0,0.504447c0,0.126114 0,0.252228 0,0.378339c0,0.252228 -0.057855,0.339679 -0.126101,0.50445c-0.048263,0.116513 0,0.378339 0,0.504447c0,0.126114 0,0.252225 0,0.504453c0,0.126111 0,0.252222 0,0.378333c0,0.252228 0,0.378339 0,0.50445c0,0.126111 0,0.378339 0,0.50445c0,0.126114 0,0.252222 0,0.50445c0,0.126111 0,0.252225 0,0.378333c0,0.252228 0,0.378339 0,0.504453c0,0.126114 0,0.378336 0,0.504447c0,0.126114 0,0.252228 0,0.50445c0,0.126111 0,0.252225 0,0.378339c0,0.252222 0,0.378333 0,0.504447c0,0.126114 -0.089173,0.41527 0,0.504447c0.178344,0.178347 0.163042,0.163051 0.252215,0.252228c0.089173,0.089177 0.126114,0.252225 0.126114,0.378333l0.126111,0l0,0.126114l0,0.126114"/>
   <path stroke="null" fill="#ffffff" stroke-width="1.5" stroke-opacity="null" fill-opacity="null" id="svg_16" d="m70.228037,66.462634c0.126114,0 0.252225,0 0.378339,0c0.126114,0 0.378339,0 0.504453,0c0.126114,0 0.252225,0 0.50444,0c0.126114,0 0.252228,0 0.378342,0c0.252225,0 0.378339,0 0.50445,0c0.126114,0 0.378329,0 0.504443,0c0.126114,0 0.252225,0 0.504453,0c0.126114,0 0.252225,0 0.378339,0c0.252225,0 0.378329,0 0.504443,0c0.126111,0 0.378339,0 0.504453,0c0.126111,0 0.252225,0 0.50445,0c0.126114,0 0.252219,0 0.378329,0c0.252228,0 0.378339,0 0.504453,0c0.126114,0 0.378339,-0.126114 0.504453,-0.126114c0.126114,0 0.252215,0 0.504443,0c0.126111,0 0.252225,0 0.378339,0c0.252225,0 0.378339,0 0.504453,0c0.126111,0 0.378329,0 0.50444,0c0.126114,0 0.252228,0 0.504453,0c0.126114,0 0.252225,0 0.378339,0c0.252215,0 0.387933,0.048263 0.504443,0c0.164773,-0.06825 0.378339,-0.126114 0.504453,-0.126114c0.126111,0 0.252225,-0.126111 0.50445,-0.126111c0.252219,0 0.301011,-0.115719 0.630557,-0.252228c0.11651,-0.04826 0.252225,0 0.378339,0c0.252225,0 0.378339,0 0.504443,0c0.126111,0 0.378339,0 0.50445,0c0.126114,0 0.3261,0.178356 0.504453,0c0.089173,-0.089173 0.163055,-0.036941 0.252228,-0.126111c0.08917,-0.089173 0.199973,0.052239 0.378329,-0.126114c0.08917,-0.089173 -0.052242,-0.199976 0.126111,-0.378329c0.089173,-0.089173 0.126114,-0.126114 0.252228,-0.126114c0.252225,0 0.289165,-0.036941 0.378339,-0.126114c0.089173,-0.08917 0.126114,-0.126111 0.126114,-0.378339c0,-0.126111 0,-0.252225 0,-0.378339c0,-0.252215 0,-0.378329 0,-0.50444c0,-0.126114 0,-0.378342 0,-0.504453c0,-0.126114 0,-0.252222 0,-0.50445c0,-0.126111 0,-0.252225 0,-0.378333c0,-0.252228 0.126111,-0.378339 0.126111,-0.504453c0,-0.126114 0,-0.378336 0,-0.504447c0,-0.126114 0,-0.252228 0,-0.50445c0,-0.126111 -0.036545,-0.257635 0,-0.378339c0.131764,-0.435187 0.252219,-0.504447 0.252219,-0.630561c0,-0.252222 0,-0.378333 0,-0.504447c0,-0.126114 0,-0.378339 0,-0.504447c0,-0.126114 0,-0.252228 0,-0.504453c0,-0.126108 0,-0.252222 0,-0.630561c0,-0.126114 0,-0.252222 0,-0.378336c0,-0.252225 0,-0.378339 0,-0.504447c0,-0.126114 0,-0.378339 0,-0.504453c0,-0.126111 0,-0.252222 0,-0.504447c0,-0.126114 0,-0.252225 0,-0.378336c0,-0.252225 0,-0.378339 0,-0.50445c0,-0.126114 0,-0.378336 0,-0.50445c0,-0.126111 0,-0.252225 0,-0.504447c0,-0.126114 0,-0.252228 0,-0.378339c0,-0.252222 0,-0.378336 0,-0.50445c0,-0.378339 0,-0.504447 0,-0.756671c0,-0.252228 0,-0.50445 0,-0.630561c0,-0.252228 0,-0.378339 0,-0.50445c0,-0.378339 0,-0.50445 0,-0.630557c0,-0.126114 0,-0.378342 0,-0.504453c0,-0.126114 0,-0.252222 0,-0.50445c0,-0.126111 0,-0.252225 0,-0.378333c0,-0.378339 0,-0.504453 0,-0.630567c0,-0.252222 0,-0.504447 0,-0.882779c0,-0.126114 0,-0.252228 0,-0.378342c0,-0.252219 0,-0.378333 0,-0.504447c0,-0.126114 0,-0.378336 0,-0.630561c0,-0.126114 0,-0.378339 0,-0.504447c0,-0.126114 0,-0.252228 0,-0.504453c0,-0.126108 0,-0.252222 0,-0.378336c0,-0.252225 0,-0.378339 0,-0.504447c0,-0.126114 0,-0.504453 0,-0.630561c0,-0.126114 0,-0.378339 0,-0.504453c0,-0.126111 0,-0.252222 0,-0.504447c0,-0.126114 0.08917,-0.289162 0,-0.378336c-0.089173,-0.089177 -0.126114,-0.252225 -0.126114,-0.378339c0,-0.126111 0,-0.252225 0,-0.504447c0,-0.126114 -0.057855,-0.213572 -0.126105,-0.378339c-0.096514,-0.233023 0,-0.378336 0,-0.504447c0,-0.126114 0,-0.378336 0,-0.50445c0,-0.126111 0.178356,-0.3261 0,-0.504453c-0.089173,-0.089177 -0.126111,-0.126108 -0.126111,-0.378333c0,-0.378336 0,-0.504447 0,-0.630561c0,-0.252228 0,-0.378339 0,-0.504447c0,-0.126114 0,-0.504453 0,-0.630561c0,-0.126114 0,-0.378342 0,-0.504453c0,-0.126114 0,-0.252222 0,-0.50445c0,-0.126111 0,-0.252225 0,-0.378333c0,-0.252228 0,-0.378339 0,-0.504453c0,-0.126114 0,-0.378336 0,-0.504447c0,-0.126114 0,-0.252228 0,-0.50445c0,-0.126111 0.059814,-0.144945 0.126111,-0.252225c0.148247,-0.239877 0.252219,-0.378336 0.252219,-0.504447c0,-0.126114 0.036937,-0.163048 0.126111,-0.252228c0.089173,-0.089177 0.036941,-0.289156 0.126114,-0.378333c0.089173,-0.08918 0.145319,-0.02959 0.378339,-0.126114c0.164773,-0.068253 0.252225,-0.126114 0.378339,-0.126114c0.252215,0 0.378329,0 0.504443,0c0.126114,0 0.378339,0 0.504453,0c0.126111,0 0.163051,0.036937 0.252225,0.126114c0.178356,0.17835 0.252225,0.252225 0.378329,0.252225c0.126114,0 0.036941,0.163045 0.126114,0.252222c0.089173,0.08918 0.126111,0.126114 0.126111,0.378339c0,0.126111 0,0.252222 0,0.378336c0,0.252225 0.103975,0.264567 0.252228,0.504447c0.066306,0.107277 0,0.378339 0,0.504453c0,0.126108 0,0.252222 0,0.504447c0,0.126114 0,0.252228 0,0.378336c0,0.252225 0,0.378339 0,0.504453c0,0.126108 0,0.378333 0,0.504447c0,0.126114 0,0.252228 0,0.504447c0,0.126114 0,0.378342 0,0.630561c0,0.126114 0,0.252228 0,0.378342c0,0.252219 0,0.378333 0,0.504447c0,0.126114 0,0.378333 0,0.504447c0,0.126114 0,0.252228 0,0.504453c0,0.126108 0,0.252222 0,0.378336c0,0.252225 0,0.378333 0,0.504447c0,0.126114 0,0.378339 0,0.504453c0,0.126108 0,0.252222 0,0.504447c0,0.126114 0,0.252225 0,0.378336c0,0.252225 0,0.378339 0,0.50445c0,0.126111 0,0.378336 0,0.50445c0,0.126111 0,0.252225 0,0.504447c0,0.126114 0,0.252225 0,0.378339c0,0.252222 0.057864,0.339673 0.126114,0.504447c0.04826,0.116513 0,0.50445 0,0.630561c0,0.378336 0,0.50445 0,0.630561c0,0.126114 0.04826,0.387936 0,0.50445c-0.06825,0.16477 -0.126114,0.252225 -0.126114,0.630561c0,0.126111 0,0.252225 0,0.50445c0,0.126114 0,0.252222 0,0.630561c0,0.252222 0,0.378336 0,0.630561c0,0.126114 0,0.252228 0,0.378336c0,0.252225 0,0.378339 0,0.504453c0,0.126108 0,0.378333 0,0.504447c0,0.126114 0,0.252228 0,0.504447c0,0.126114 0,0.378342 0,0.630561c0,0.126114 0,0.252228 0,0.378342c0,0.252219 0,0.378333 0,0.504447c0,0.126114 0,0.378336 0,0.504447c0,0.126114 0,0.252228 0,0.504453c0,0.126108 0,0.252222 0,0.378336c0,0.252225 0,0.378339 0,0.504447c0,0.126114 0,0.378339 0,0.504453c0,0.126108 0,0.252222 0,0.504447c0,0.126114 0,0.252225 0,0.378336c0,0.378339 0,0.50445 0,0.630561c0,0.252225 0,0.378339 0,0.630564c0,0.378336 -0.126114,0.630561 -0.126114,0.882782c0,0.126114 0.144787,0.281024 0,0.630561c-0.06825,0.164773 -0.126114,0.378339 -0.126114,0.756675c0,0.126111 0,0.252225 0,0.50445c0,0.126111 0,0.252222 0,0.630561c0,0.126111 0,0.252222 0,0.378336c0,0.252225 0,0.378339 0,0.504447c0,0.126114 0,0.378339 0,0.504453c0,0.126108 0,0.252222 0,0.504447c0,0.126114 0,0.252228 0,0.378336c0,0.252225 0,0.378339 0,0.504453c0,0.126108 0,0.378333 0,0.504447c0,0.126114 0,0.252228 0,0.504453c0,0.126114 0,0.252215 0,0.378329c0,0.252225 0,0.378339 0,0.504453c0,0.126111 0,0.378339 0,0.50445c0,0.126114 0,0.252219 0,0.504443c0,0.126114 0,0.252228 0,0.378339c0,0.252228 -0.230083,0.138469 -0.378329,0.378339c-0.066297,0.107277 -0.036937,0.163055 -0.126111,0.252228c-0.089173,0.089173 -0.129485,0.223245 -0.252228,0.252215c-0.274453,0.06479 -0.415279,0.036941 -0.50445,0.126114c-0.089173,0.089173 -0.126114,0.126111 -0.378342,0.126111c-0.126101,0 -0.126101,0.126114 -0.252215,0.126114c-0.126114,0 -0.378339,0.252228 -0.504453,0.252228c-0.126111,0 -0.252225,0.126111 -0.50445,0.126111c-0.126114,0 -0.252219,0.126114 -0.378329,0.126114c-0.252228,0 -0.252228,0.126114 -0.378342,0.126114c-0.126111,0 -0.126111,0.252215 -0.252225,0.252215c-0.252225,0 -0.252225,0.126114 -0.378339,0.126114c-0.126114,0 -0.126114,0.126111 -0.252215,0.126111c-0.252228,0 -0.252228,0.126114 -0.378339,0.126114c-0.126114,0 -0.252228,0 -0.504453,0c-0.126114,0 -0.261829,-0.048263 -0.378339,0c-0.329547,0.136506 -0.378329,0.252225 -0.504443,0.252225c-0.126114,0 -0.378339,0 -0.504453,0c-0.126114,0 -0.252225,0 -0.504443,0c-0.126111,0 -0.252225,0 -0.378339,0c-0.252225,0 -0.378339,0 -0.50445,0c-0.126114,0 -0.378342,0 -0.504443,0c-0.126114,0 -0.252228,0 -0.504453,0c-0.126114,0 -0.252225,0 -0.378339,0c-0.252225,0 -0.378339,-0.126111 -0.504443,-0.126111c-0.126111,0 -0.339679,-0.057864 -0.504453,-0.126114c-0.11651,-0.048263 -0.229997,-0.061324 -0.50445,-0.126114c-0.122743,-0.02897 -0.289159,0.089173 -0.378329,0c-0.178356,-0.178353 -0.261829,-0.203962 -0.378339,-0.252225c-0.164773,-0.06825 -0.252228,-0.126105 -0.504453,-0.126105c-0.126114,0 -0.289169,0.089173 -0.378339,0c-0.089173,-0.08917 -0.252219,-0.126111 -0.378329,-0.126111c-0.126114,0 -0.252228,0 -0.504453,0c-0.126114,0 -0.252228,-0.126114 -0.378339,-0.126114c-0.252219,0 -0.264564,-0.103972 -0.504443,-0.252225c-0.107277,-0.0663 -0.415279,0.08917 -0.504453,0c-0.089173,-0.089173 -0.126114,-0.126114 -0.252225,-0.126114c-0.252228,0 -0.33967,-0.057864 -0.504443,-0.126114c-0.11651,-0.04826 -0.378339,0 -0.504453,0c-0.126111,0 -0.252225,0 -0.504453,0c-0.126111,0 -0.252215,-0.126114 -0.378329,-0.126114c-0.252225,0 -0.199983,-0.073869 -0.378339,-0.252225c-0.08917,-0.089173 -0.252225,0 -0.50445,0c-0.126114,0 -0.252228,0 -0.252228,-0.126114c0,-0.126101 0,-0.252215 0,-0.50444l0,-0.126114"/>
   <path stroke="null" d="m21.161425,31.216731c0.232617,-0.116308 0.581542,-0.348925 0.930467,-0.69785c0.116308,-0.116308 0.489852,-0.431982 0.814158,-0.69785c0.381608,-0.312845 0.465233,-0.465233 0.581542,-0.581542c0.348925,-0.348925 0.441622,-0.495066 0.581542,-0.581542c0.312868,-0.193363 0.314667,-0.38919 0.581542,-0.581542c0.210983,-0.152069 0.518596,-0.429579 0.581542,-0.581542c0.04451,-0.107456 0.232617,-0.348925 0.348925,-0.465233c0.116308,-0.116308 0.404087,-0.482604 0.465233,-0.581542c0.136728,-0.221232 0.366631,-0.376215 0.581542,-0.465233c0.303929,-0.125892 0.277613,-0.45565 0.581542,-0.581542c0.107454,-0.04451 0.277613,-0.223033 0.581542,-0.348925c0.107454,-0.04451 0.218492,-0.406318 0.581542,-0.465233c0.114807,-0.018631 0.384982,-0.27187 0.69785,-0.465233c0.279838,-0.17295 0.457574,-0.482015 0.69785,-0.581542c0.339803,-0.14075 0.443443,-0.256669 0.69785,-0.465233c0.324306,-0.265866 0.446471,-0.368754 0.814158,-0.69785c0.554924,-0.496681 1.283828,-0.665481 1.744625,-1.163083c0.176706,-0.190822 0.51023,-0.688266 0.814158,-0.814158c0.107456,-0.04451 0.617597,-0.27187 0.930467,-0.465233c0.139919,-0.086475 0.348925,-0.348925 0.581542,-0.465233c0.232617,-0.116308 0.277613,-0.339341 0.581542,-0.465233c0.107456,-0.04451 0.125161,-0.071798 0.232617,-0.116308c0.151963,-0.062946 0.313271,-0.169671 0.465233,-0.232617c0.107456,-0.04451 0.254251,-0.196858 0.465233,-0.348925c0.133438,-0.096176 0.080548,-0.254251 0.232617,-0.465233c0.096176,-0.133436 0.370559,-0.080549 0.581542,-0.232617c0.133438,-0.096176 0.444813,-0.244001 0.581542,-0.465233c0.061146,-0.098937 0.129857,-0.092449 0.348925,-0.232617c0.627319,-0.401379 0.984269,-0.552482 1.279391,-0.930467c0.071578,-0.091675 0.268672,-0.388178 0.581542,-0.581542c0.139919,-0.086475 0.161305,-0.339341 0.465233,-0.465233c0.107456,-0.04451 0.285979,-0.080652 0.348925,-0.232617c0.04451,-0.107454 0.127695,-0.212197 0.348925,-0.348925c0.098937,-0.061146 0.099179,-0.136441 0.232617,-0.232617c0.210983,-0.152067 0.259905,-0.134015 0.348925,-0.348925c0.062946,-0.151964 0.250325,-0.143598 0.465233,-0.232617c0.151963,-0.062946 0.116308,-0.348925 0.232617,-0.465233c0.116308,-0.116308 0.313164,-0.254251 0.465233,-0.465233c0.096176,-0.133436 0.250325,-0.143598 0.465233,-0.232617c0.151963,-0.062946 0.215487,-0.369057 0.348925,-0.465233c0.210983,-0.152067 0.313164,-0.254251 0.465233,-0.465233c0.096176,-0.133437 0.313271,-0.285979 0.465233,-0.348925c0.107456,-0.044509 0.590394,-0.420724 0.69785,-0.465233c0.151963,-0.062946 0.401322,-0.401321 0.69785,-0.69785c0.296528,-0.296529 0.638173,-0.35829 0.930467,-0.581542c0.333265,-0.254546 0.505498,-0.314667 0.69785,-0.581542c0.152069,-0.210983 0.313164,-0.370559 0.465233,-0.581542c0.192352,-0.266874 0.520395,-0.366295 0.581542,-0.465233c0.136728,-0.221232 0.448104,-0.369057 0.581542,-0.465233c0.210983,-0.152067 0.429473,-0.254251 0.581542,-0.465233c0.096176,-0.133437 0.212119,-0.289173 0.465233,-0.348925c0.113195,-0.026722 0.196962,-0.285979 0.348925,-0.348925c0.214908,-0.089018 0.241469,-0.071799 0.348925,-0.116308c0.151963,-0.062946 0.232617,-0.348925 0.465233,-0.348925c0.116308,0 0.232617,-0.116308 0.348925,-0.116308c0.232617,0 0.313271,-0.169671 0.465233,-0.232617c0.107456,-0.044509 0.244003,-0.095888 0.465233,-0.232617c0.098937,-0.061147 0.250325,-0.02729 0.465233,-0.116308c0.151963,-0.062946 0.266684,-0.150374 0.348925,-0.232617c0.164485,-0.164485 0.266684,-0.150374 0.348925,-0.232617c0.082241,-0.082242 0.080654,-0.169671 0.232617,-0.232617c0.214908,-0.089018 0.249988,-0.055162 0.348925,-0.116308c0.22123,-0.136729 0.212119,-0.405481 0.465233,-0.465233c0.113195,-0.026722 0.082053,-0.156573 0.348925,-0.348925c0.210983,-0.152068 0.313271,-0.285979 0.465233,-0.348925c0.107456,-0.044509 0.116308,-0.232617 0.348925,-0.232617c0.116308,0 0.125161,-0.071799 0.232617,-0.116308c0.151963,-0.062945 0.266684,-0.150374 0.348925,-0.232617c0.082241,-0.082242 0.232617,0 0.348925,0c0.232617,0 0.348925,0 0.465233,0c0.116308,0 0.348925,0 0.465233,0c0.116308,0 0.232617,0 0.465233,0c0.116308,0 0.150376,0.034066 0.232617,0.116308c0.082241,0.082242 0.366296,-0.061147 0.465233,0c0.22123,0.136729 0.250321,0.143598 0.465233,0.232617c0.151966,0.062945 0.235726,0.205895 0.348925,0.232617c0.253118,0.059753 0.244003,0.212196 0.465233,0.348925c0.098937,0.061147 0.348925,0.116308 0.465233,0.116308c0.116308,0 0.116308,0.116308 0.232617,0.116308c0.232617,0 0.313267,0.053363 0.465233,0.116308c0.107456,0.044509 0.348925,0.232617 0.465233,0.232617c0.116308,0 0.232617,0.116308 0.465233,0.116308c0.116308,0 0.232617,0.116308 0.348925,0.116308c0.232617,0 0.348925,0.116308 0.465233,0.116308c0.116308,0 0.41706,0.068132 0.581542,0.232617c0.082241,0.082242 0.382993,0.034066 0.465233,0.116308c0.082241,0.082242 0.150376,0.034066 0.232617,0.116308c0.082241,0.082242 0.196859,0.137942 0.348925,0.348925c0.096176,0.133437 0.300752,0.068132 0.465233,0.232617c0.082241,0.082242 0.027288,0.134016 0.116308,0.348925c0.062946,0.151964 0.328501,0.127693 0.465233,0.348925c0.122293,0.197876 0.169671,0.196961 0.232617,0.348925c0.04451,0.107455 0.212193,0.011385 0.348925,0.232617c0.122293,0.197876 0.080651,0.285979 0.232617,0.348925c0.107456,0.044509 0.095807,0.172864 0.348925,0.232617c0.113199,0.026722 0.150376,0.150374 0.232617,0.232617c0.082241,0.082242 0.184444,0.068132 0.348925,0.232617c0.082241,0.082242 -0.048173,0.18444 0.116308,0.348925c0.082241,0.082242 0.150376,0.034066 0.232617,0.116308c0.082241,0.082242 0.241469,0.071799 0.348925,0.116308c0.151966,0.062946 0.161308,0.223034 0.465233,0.348925c0.107456,0.044509 0.125161,0.071799 0.232617,0.116308c0.151966,0.062946 0.313267,0.169671 0.465233,0.232617c0.107456,0.044509 0.116308,0.232617 0.232617,0.232617c0.232617,0 0.232617,0.116308 0.348925,0.116308c0.116308,0 0.150376,0.034066 0.232617,0.116308c0.082241,0.082242 0.196859,0.137942 0.348925,0.348925c0.096176,0.133437 0.150376,0.150374 0.232617,0.232617c0.164481,0.164485 0.366296,0.055161 0.465233,0.116308c0.22123,0.136728 0.465233,0.348925 0.581542,0.465233c0.116308,0.116308 0.352034,0.322203 0.465233,0.348925c0.253118,0.059752 0.438513,0.235728 0.465233,0.348925c0.059751,0.253116 0.370562,0.313166 0.581542,0.465233c0.133438,0.096176 0.196959,0.402287 0.348925,0.465233c0.214912,0.089018 0.465233,0.116308 0.581542,0.232617c0.232617,0.232617 0.277617,0.45565 0.581542,0.581542c0.214912,0.089018 0.38657,0.293115 0.581542,0.465233c0.314382,0.277531 0.232617,0.465233 0.348925,0.581542c0.116308,0.116308 0.110324,0.151049 0.232617,0.348925c0.136732,0.221232 0.266684,0.150374 0.348925,0.232617c0.246729,0.246727 0.294831,0.501377 0.465233,0.69785c0.240979,0.277856 0.315674,0.606161 0.581542,0.930467c0.104283,0.127203 0.215487,0.485366 0.348925,0.581542c0.210979,0.152067 0.271866,0.268674 0.465233,0.581542c0.086472,0.139919 0.116308,0.232617 0.348925,0.465233c0.116308,0.116308 0.232617,0.232617 0.348925,0.348925c0.232617,0.232617 0.313267,0.402287 0.465233,0.465233c0.107456,0.04451 0.15105,-0.005986 0.348925,0.116308c0.22123,0.136728 0.150376,0.266682 0.232617,0.348925c0.082241,0.082242 0.348925,0.116308 0.465233,0.116308c0.116308,0 0.465233,0.116308 0.581542,0.116308c0.116308,0 0.465233,0.232617 0.581542,0.232617c0.116308,0 0.116308,0.116308 0.232617,0.116308c0.232617,0 0.313267,0.053362 0.465233,0.116308c0.107456,0.04451 0.266684,0.034066 0.348925,0.116308c0.082241,0.082242 0.266684,-0.082242 0.348925,0c0.164481,0.164485 0.266684,0.150374 0.348925,0.232617c0.082241,0.082242 0.071798,0.125162 0.116308,0.232617c0.062946,0.151964 0.184444,0.18444 0.348925,0.348925c0.082241,0.082242 0.266684,0.034066 0.348925,0.116308c0.082241,0.082242 0.150376,0.150374 0.232617,0.232617c0.082241,0.082242 0.116308,0.232617 0.232617,0.232617c0.116308,0 0.134013,0.02729 0.348925,0.116308c0.151966,0.062946 0.196959,0.169671 0.348925,0.232617c0.214912,0.089018 0.241469,0.188107 0.348925,0.232617c0.151966,0.062946 0.150376,0.150374 0.232617,0.232617c0.164481,0.164485 0.382993,0.034066 0.465233,0.116308c0.164481,0.164485 0.137946,0.313166 0.348925,0.465233c0.133438,0.096176 0.188107,0.357779 0.232617,0.465233c0.062946,0.151964 0.348925,0.232617 0.348925,0.465233c0,0.116308 0.172865,0.328425 0.232617,0.581542c0.02672,0.113197 0.034068,0.150374 0.116308,0.232617c0.082241,0.082242 0.235726,0.322203 0.348925,0.348925c0.253118,0.059753 0.429576,0.285979 0.581542,0.348925c0.107456,0.04451 0.300752,0.068132 0.465233,0.232617c0.082241,0.082242 0.092697,0.146141 0.232617,0.232617c0.31287,0.193363 0.300752,0.18444 0.465233,0.348925c0.082241,0.082242 0.250321,0.02729 0.465233,0.116308c0.151966,0.062946 0.133679,0.17147 0.232617,0.232617c0.22123,0.136728 0.313267,0.285979 0.465233,0.348925c0.107456,0.04451 0.150376,0.034066 0.232617,0.116308c0.164481,0.164485 0.382993,-0.082242 0.465233,0c0.082241,0.082241 -0.048173,0.18444 0.116308,0.348925c0.164481,0.164485 0.348925,0.116308 0.465233,0.116308c0.116308,0 0.357777,0.071798 0.465233,0.116308c0.151966,0.062946 0.161308,0.223033 0.465233,0.348925c0.107456,0.04451 0.125161,0.071798 0.232617,0.116308c0.151966,0.062946 0.266684,0.150376 0.348925,0.232617c0.082241,0.082241 0.169671,0.196962 0.232617,0.348925c0.04451,0.107456 0.116308,0.116308 0.116308,0.232617c0,0.232617 0.232617,0.232617 0.232617,0.348925c0,0.116308 0.116308,0.116308 0.116308,0.232617c0,0.232617 0.034068,0.382993 0.116308,0.465233c0.082241,0.082241 -0.005984,0.15105 0.116308,0.348925c0.136732,0.22123 0.266684,0.150376 0.348925,0.232617c0.082241,0.082241 0.053362,0.313271 0.116308,0.465233c0.04451,0.107456 0,0.232617 0,0.465233c0,0.116308 0,0.232617 0,0.348925c0,0.232617 0,0.348925 0,0.465233c0,0.116308 0,0.348925 -0.232617,0.348925c-0.116308,0 -0.232617,0 -0.348925,0c-0.232617,0 -0.313267,-0.053362 -0.465233,-0.116308c-0.107456,-0.04451 -0.348925,0 -0.465233,0c-0.116308,0 -0.250321,0.08902 -0.465233,0c-0.151966,-0.062946 -0.232617,-0.116308 -0.348925,-0.116308c-0.232617,0 -0.357777,0.04451 -0.465233,0c-0.151966,-0.062946 -0.184444,-0.18444 -0.348925,-0.348925c-0.082241,-0.082241 -0.266684,0.082241 -0.348925,0c-0.082241,-0.082241 -0.196959,-0.169671 -0.348925,-0.232617c-0.107456,-0.04451 -0.300752,0.048177 -0.465233,-0.116308c-0.164481,-0.164485 -0.150376,-0.150376 -0.232617,-0.232617c-0.082241,-0.082241 -0.034068,-0.150376 -0.116308,-0.232617c-0.164481,-0.164485 -0.127695,-0.212197 -0.348925,-0.348925c-0.098937,-0.061146 -0.119418,-0.089585 -0.232617,-0.116308c-0.253118,-0.059751 -0.196859,-0.254251 -0.348925,-0.465233c-0.096176,-0.133438 -0.150376,-0.150376 -0.232617,-0.232617c-0.164481,-0.164485 -0.266684,-0.034068 -0.348925,-0.116308c-0.164481,-0.164485 -0.150376,-0.266684 -0.232617,-0.348925c-0.082241,-0.082241 -0.150376,-0.150376 -0.232617,-0.232617c-0.082241,-0.082241 -0.235726,-0.205893 -0.348925,-0.232617c-0.253118,-0.059751 -0.266684,-0.150376 -0.348925,-0.232617c-0.082241,-0.082241 -0.281336,0.067592 -0.465233,-0.116308c-0.183897,-0.1839 -0.209006,-0.26245 -0.348925,-0.348925c-0.31287,-0.193363 -0.382993,-0.150376 -0.465233,-0.232617c-0.082241,-0.082241 -0.357777,-0.188107 -0.465233,-0.232617c-0.151966,-0.062946 -0.300752,-0.068132 -0.465233,-0.232617c-0.082241,-0.082241 0.048173,-0.18444 -0.116308,-0.348925c-0.082241,-0.082241 -0.212115,-0.172865 -0.465233,-0.232617c-0.113199,-0.026724 -0.133679,-0.055162 -0.232617,-0.116308c-0.22123,-0.136728 -0.348925,-0.348925 -0.465233,-0.465233c-0.116308,-0.116308 -0.300752,-0.18444 -0.465233,-0.348925c-0.082241,-0.082242 -0.150376,-0.150374 -0.232617,-0.232617c-0.082241,-0.082242 0.048173,-0.18444 -0.116308,-0.348925c-0.164481,-0.164485 -0.196959,-0.169671 -0.348925,-0.232617c-0.107456,-0.04451 -0.125161,-0.071798 -0.232617,-0.116308c-0.303925,-0.125892 -0.348925,-0.348925 -0.465233,-0.465233c-0.116308,-0.116308 -0.184444,-0.18444 -0.348925,-0.348925c-0.082241,-0.082242 -0.150376,-0.150374 -0.232617,-0.232617c-0.082241,-0.082242 -0.184444,-0.18444 -0.348925,-0.348925c-0.082241,-0.082242 -0.125161,-0.071798 -0.232617,-0.116308c-0.151966,-0.062946 -0.266684,-0.150374 -0.348925,-0.232617c-0.082241,-0.082242 -0.125161,-0.188107 -0.232617,-0.232617c-0.151966,-0.062946 -0.266684,-0.150374 -0.348925,-0.232617c-0.082241,-0.082242 -0.150376,-0.034066 -0.232617,-0.116308c-0.082241,-0.082242 -0.348925,-0.232617 -0.465233,-0.232617c-0.116308,0 -0.116308,-0.116308 -0.232617,-0.116308c-0.232617,0 -0.232617,-0.116308 -0.348925,-0.116308c-0.116308,0 -0.125161,-0.071798 -0.232617,-0.116308c-0.303925,-0.125892 -0.313267,-0.285979 -0.465233,-0.348925c-0.107456,-0.04451 -0.134013,-0.02729 -0.348925,-0.116308c-0.151966,-0.062946 -0.127695,-0.212197 -0.348925,-0.348925c-0.197875,-0.122294 -0.266684,-0.150374 -0.348925,-0.232617c-0.082241,-0.082242 -0.146152,-0.281333 -0.69785,-0.465233c-0.110338,-0.036779 -0.21181,-0.267357 -0.581542,-0.465233c-0.102544,-0.054882 -0.095807,-0.172863 -0.348925,-0.232617c-0.226391,-0.053444 -0.241469,-0.071798 -0.348925,-0.116308c-0.303925,-0.125892 -0.313267,-0.285979 -0.465233,-0.348925c-0.107456,-0.04451 -0.348925,-0.116308 -0.465233,-0.116308c-0.116308,0 -0.232617,-0.116308 -0.465233,-0.116308c-0.116308,0 -0.116308,-0.232617 -0.232617,-0.232617c-0.116308,0 -0.382993,-0.034066 -0.465233,-0.116308c-0.082241,-0.082242 -0.116308,-0.116308 -0.232617,-0.232617c-0.232617,-0.232617 -0.402287,-0.196961 -0.465233,-0.348925c-0.04451,-0.107454 -0.034068,-0.150374 -0.116308,-0.232617c-0.164481,-0.164485 -0.241469,-0.188107 -0.348925,-0.232617c-0.151966,-0.062946 -0.150376,-0.150374 -0.232617,-0.232617c-0.082241,-0.082242 -0.285979,-0.313269 -0.348925,-0.465233c-0.04451,-0.107454 -0.034068,-0.150374 -0.116308,-0.232617c-0.082241,-0.082242 -0.095807,-0.289172 -0.348925,-0.348925c-0.113199,-0.026722 -0.150376,-0.034066 -0.232617,-0.116308c-0.082241,-0.082242 -0.212193,-0.244001 -0.348925,-0.465233c-0.06115,-0.098937 -0.169671,-0.080652 -0.232617,-0.232617c-0.08902,-0.21491 -0.034068,-0.266682 -0.116308,-0.348925c-0.164481,-0.164485 -0.266684,-0.150374 -0.348925,-0.232617c-0.082241,-0.082242 -0.080651,-0.285979 -0.232617,-0.348925c-0.214912,-0.089018 -0.196959,-0.169671 -0.348925,-0.232617c-0.107456,-0.04451 -0.328501,-0.127693 -0.465233,-0.348925c-0.06115,-0.098937 -0.080551,-0.254251 -0.232617,-0.465233c-0.096176,-0.133436 -0.266684,-0.150374 -0.348925,-0.232617c-0.082241,-0.082242 -0.150376,-0.034066 -0.232617,-0.116308c-0.164481,-0.164485 -0.152364,-0.27187 -0.465233,-0.465233c-0.139919,-0.086475 -0.250321,-0.259907 -0.465233,-0.348925c-0.151966,-0.062946 -0.219278,-0.13139 -0.348925,-0.232617c-0.534554,-0.417365 -0.957087,-0.433785 -1.512008,-0.930467c-0.122562,-0.109698 -0.268672,-0.155562 -0.581542,-0.348925c-0.279838,-0.17295 -0.465233,-0.348925 -0.581542,-0.465233c-0.116308,-0.116308 -0.232617,-0.116308 -0.581542,-0.465233c-0.116308,-0.116308 -0.188107,-0.125162 -0.232617,-0.232617c-0.125892,-0.303929 -0.313267,-0.285979 -0.465233,-0.348925c-0.107456,-0.044509 -0.134013,-0.02729 -0.348925,-0.116308c-0.151966,-0.062946 -0.143596,-0.134016 -0.232617,-0.348925c-0.062946,-0.151964 -0.348925,-0.116308 -0.465233,-0.232617c-0.116308,-0.116308 -0.254254,-0.313166 -0.465233,-0.465233c-0.133438,-0.096176 -0.150376,-0.150374 -0.232617,-0.232617c-0.082241,-0.082242 -0.134013,-0.143598 -0.348925,-0.232617c-0.151966,-0.062946 -0.266684,-0.150374 -0.348925,-0.232617c-0.082241,-0.082242 -0.068135,-0.18444 -0.232617,-0.348925c-0.082241,-0.082242 -0.235726,-0.089586 -0.348925,-0.116308c-0.253118,-0.059752 -0.382993,-0.034066 -0.465233,-0.116308c-0.082241,-0.082242 -0.18444,0.048177 -0.348925,-0.116308c-0.164485,-0.164485 -0.150376,-0.150374 -0.232617,-0.232617c-0.082241,-0.082242 -0.116308,-0.116308 -0.348925,-0.116308c-0.116308,0 -0.232617,0 -0.348925,0c-0.232617,0 -0.348925,0 -0.465233,0c-0.116308,0 -0.348925,0 -0.465233,0c-0.116308,0 -0.250325,-0.089018 -0.465233,0c-0.151963,0.062946 -0.150376,0.150374 -0.232617,0.232617c-0.082241,0.082242 -0.357777,0.071799 -0.465233,0.116308c-0.151963,0.062946 -0.300748,0.18444 -0.465233,0.348925c-0.082241,0.082242 -0.092697,0.146141 -0.232617,0.232617c-0.31287,0.193363 -0.357777,0.304416 -0.465233,0.348925c-0.151963,0.062946 -0.300748,0.068132 -0.465233,0.232617c-0.082241,0.082242 0.048177,0.18444 -0.116308,0.348925c-0.082241,0.082242 -0.164609,0.138263 -0.232617,0.232617c-0.215058,0.298375 -0.382993,0.266682 -0.465233,0.348925c-0.082241,0.082242 -0.034068,0.150374 -0.116308,0.232617c-0.164485,0.164485 -0.366296,0.055161 -0.465233,0.116308c-0.22123,0.136728 -0.357777,0.188107 -0.465233,0.232617c-0.151963,0.062946 -0.212119,0.172864 -0.465233,0.232617c-0.113195,0.026722 -0.348925,0.116308 -0.581542,0.116308c-0.116308,0 -0.235729,0.205895 -0.348925,0.232617c-0.253115,0.059752 -0.313271,0.169671 -0.465233,0.232617c-0.107456,0.044509 -0.244003,0.212197 -0.465233,0.348925c-0.197875,0.122294 -0.250325,0.02729 -0.465233,0.116308c-0.151963,0.062946 -0.232617,0.116308 -0.348925,0.232617c-0.232617,0.232617 -0.304415,0.24147 -0.348925,0.348925c-0.062946,0.151964 -0.267359,0.110323 -0.465233,0.232617c-0.22123,0.136728 -0.285979,0.313269 -0.348925,0.465233c-0.04451,0.107454 -0.196856,0.137942 -0.348925,0.348925c-0.096176,0.133436 -0.281333,0.165024 -0.465233,0.348925c-0.1839,0.1839 -0.196962,0.402287 -0.348925,0.465233c-0.214908,0.089018 -0.266684,0.034066 -0.348925,0.116308c-0.164485,0.164485 -0.034068,0.266682 -0.116308,0.348925c-0.082241,0.082242 -0.18444,-0.048177 -0.348925,0.116308c-0.082241,0.082242 -0.0605,0.153954 -0.232617,0.348925c-0.277531,0.314382 -0.348925,0.348925 -0.581542,0.581542c-0.116308,0.116308 -0.369057,0.215489 -0.465233,0.348925c-0.152069,0.210983 -0.254251,0.313166 -0.465233,0.465233c-0.133438,0.096176 -0.212197,0.244001 -0.348925,0.465233c-0.061146,0.098937 -0.27187,0.268674 -0.465233,0.581542c-0.086475,0.139919 -0.044996,0.339341 -0.348925,0.465233c-0.107456,0.04451 -0.150376,0.150374 -0.232617,0.232617c-0.082241,0.082242 -0.18444,-0.048177 -0.348925,0.116308c-0.164485,0.164485 -0.034068,0.266682 -0.116308,0.348925c-0.082241,0.082242 -0.095498,0.267357 -0.465233,0.465233c-0.102547,0.054882 -0.196962,0.285979 -0.348925,0.348925c-0.214908,0.089018 -0.348925,0.232617 -0.465233,0.348925c-0.116308,0.116308 -0.369057,0.09918 -0.465233,0.232617c-0.152069,0.210983 -0.429579,0.285979 -0.581542,0.348925c-0.214908,0.089018 -0.241952,0.036142 -0.581542,0.116308c-0.253115,0.059753 -0.474086,0.304415 -0.581542,0.348925c-0.151963,0.062946 -0.513949,0.165024 -0.69785,0.348925c-0.1839,0.1839 -0.331795,0.369057 -0.465233,0.465233c-0.210983,0.152067 -0.465233,0.116308 -0.581542,0.348925c-0.116308,0.232617 -0.485366,0.215489 -0.581542,0.348925c-0.152069,0.210983 -0.238839,0.295481 -0.465233,0.348925c-0.253115,0.059753 -0.366633,0.376215 -0.581542,0.465233c-0.151963,0.062946 -0.196962,0.285979 -0.348925,0.348925c-0.214908,0.089018 -0.266684,0.266682 -0.348925,0.348925c-0.082241,0.082242 -0.150376,0.034066 -0.232617,0.116308c-0.082241,0.082242 -0.249988,0.287779 -0.348925,0.348925c-0.22123,0.136728 -0.328115,0.499973 -0.69785,0.69785c-0.102547,0.054882 -0.244003,0.328505 -0.465233,0.465233c-0.098937,0.061146 -0.254251,0.080549 -0.465233,0.232617c-0.133438,0.096176 -0.134017,0.259907 -0.348925,0.348925c-0.303929,0.125892 -0.360312,0.444813 -0.581542,0.581542c-0.197875,0.122294 -0.357777,0.188107 -0.465233,0.232617c-0.151963,0.062946 -0.18444,0.18444 -0.348925,0.348925c-0.082241,0.082242 -0.215487,0.136441 -0.348925,0.232617c-0.210983,0.152069 -0.448104,0.369057 -0.581542,0.465233c-0.210983,0.152069 -0.360312,0.328505 -0.581542,0.465233c-0.197876,0.122293 -0.241471,0.071798 -0.348925,0.116308c-0.151964,0.062946 -0.150374,0.150376 -0.232617,0.232617c-0.164485,0.164485 -0.382991,0.150376 -0.465233,0.232617c-0.082242,0.082241 -0.108649,0.13309 -0.348925,0.232617c-0.339803,0.14075 -1.22174,0.418011 -1.744625,0.69785c-0.290045,0.155228 -0.590396,0.304415 -0.69785,0.348925c-0.151964,0.062946 -0.482604,0.17147 -0.581542,0.232617c-0.221232,0.136728 -0.212117,0.289174 -0.465233,0.348925c-0.113197,0.026724 -0.303685,-0.008366 -0.581542,0.232617c-0.196473,0.170402 -0.196961,0.285979 -0.348925,0.348925c-0.21491,0.08902 -0.250323,0.027288 -0.465233,0.116308c-0.151964,0.062946 -0.382991,0.266684 -0.465233,0.348925c-0.082242,0.082241 -0.080652,0.169671 -0.232617,0.232617c-0.21491,0.08902 -0.232617,0.116308 -0.348925,0.116308c-0.116308,0 -0.119419,0.205893 -0.232617,0.232617c-0.253116,0.059751 -0.266682,0.150376 -0.348925,0.232617c-0.082242,0.082241 -0.300748,-0.048177 -0.465233,0.116308c-0.164485,0.164485 -0.150374,0.150376 -0.232617,0.232617c-0.082242,0.082241 -0.116308,0.116308 -0.348925,0.116308c-0.116308,0 -0.232617,0 -0.348925,0c-0.232617,0 -0.232617,-0.116308 -0.232617,-0.232617c0,-0.116308 0,-0.232617 0,-0.465233l0,-0.116308l0,-0.116308l0,-0.116308" id="svg_4" stroke-width="1.5" fill="#ffffff"/>
  </g>
  <text font-weight="bold" xml:space="preserve" text-anchor="start" font-family="Helvetica, Arial, sans-serif" font-size="24" id="svg_6" y="42.25" x="118.375" stroke-opacity="null" stroke-width="0" fill="#ffffff">RAMOGI</text>
  <text font-weight="bold" xml:space="preserve" text-anchor="start" font-family="Helvetica, Arial, sans-serif" font-size="9.5" id="svg_7" y="62.25" x="119.875" stroke-opacity="null" stroke-width="0" fill="#ffffff">RESOURCE CENTRE</text>
 </g>
</svg>